<svg xmlns="http://www.w3.org/2000/svg" width="815" height="760" viewBox="100 60 815 760">
  <g fill="#324256">
    <path fill-rule="evenodd" d="M185 72H829a73 73 0 0 1 0 146H185a73 73 0 0 1 0-146ZM188 116a31 31 0 1 0 0 62a31 31 0 1 0 0-62Z"/>
    <path d="M464 200V349a43 43 0 0 0 86 0V200Z"/>
    <path d="M467 762C467 777 481 790 500 808C492 792 481 777 481 762Z"/>
  </g>
  <path fill="none" stroke="#324256" stroke-width="14" stroke-linejoin="round"
        d="M507 380C507 398 540 396 540 414C540 434 474 464 474 484C474 504 540 528 540 548C540 568 474 606 474 626C474 646 540 677 540 697C540 717 474 742 474 762"/>
</svg>
